<svg xmlns="http://www.w3.org/2000/svg" viewBox="0 0 1400 1000" width="1400" height="1000">
<defs>
  <filter id="glow" x="-20%" y="-20%" width="140%" height="140%">
    <feGaussianBlur stdDeviation="2" result="blur"/>
    <feMerge><feMergeNode in="blur"/><feMergeNode in="SourceGraphic"/></feMerge>
  </filter>
  <filter id="bigGlow" x="-40%" y="-40%" width="180%" height="180%">
    <feGaussianBlur stdDeviation="4" result="blur"/>
    <feMerge><feMergeNode in="blur"/><feMergeNode in="SourceGraphic"/></feMerge>
  </filter>
</defs>
<rect width="1400" height="1000" fill="#020008"/>
<text x="700" y="35" font-family="'Georgia', serif" font-size="22" fill="#cc8844" text-anchor="middle" letter-spacing="4" opacity="0.9">THE CHIRAL SPECTRUM</text>
<text x="700" y="57" font-family="'Courier New', monospace" font-size="10" fill="#886644" text-anchor="middle" letter-spacing="1" opacity="0.5">SSBM nesting hierarchy — each level is a universe, mapped to visible light by mass</text>
<!-- Spectral bar: each level = one band -->
  <rect x="1303.8860652618255" y="85" width="17.11393473817452" height="60" fill="#610000" opacity="0.7"/>
  <line x1="1320.0" y1="145" x2="1320.0" y2="153" stroke="#610000" stroke-width="0.8" opacity="0.5"/>
  <text x="1320.0" y="163" font-family="'Courier New', monospace" font-size="8" fill="#610000" text-anchor="middle" opacity="0.5">L0</text>
  <rect x="1287.772130523651" y="85" width="17.11393473817452" height="60" fill="#6f0000" opacity="0.7"/>
  <rect x="1271.658195785476" y="85" width="17.113934738174976" height="60" fill="#7c0000" opacity="0.7"/>
  <rect x="1255.5442610473015" y="85" width="17.11393473817452" height="60" fill="#890000" opacity="0.7"/>
  <rect x="1239.430326309127" y="85" width="17.11393473817452" height="60" fill="#960000" opacity="0.7"/>
  <rect x="1223.3163915709522" y="85" width="17.11393473817475" height="60" fill="#a20000" opacity="0.7"/>
  <line x1="1239.430326309127" y1="145" x2="1239.430326309127" y2="153" stroke="#a20000" stroke-width="0.8" opacity="0.5"/>
  <text x="1239.430326309127" y="163" font-family="'Courier New', monospace" font-size="8" fill="#a20000" text-anchor="middle" opacity="0.5">L5</text>
  <rect x="1207.2024568327777" y="85" width="17.11393473817452" height="60" fill="#ae0000" opacity="0.7"/>
  <rect x="1191.0885220946031" y="85" width="17.11393473817452" height="60" fill="#ba0000" opacity="0.7"/>
  <rect x="1174.9745873564286" y="85" width="17.11393473817452" height="60" fill="#c60000" opacity="0.7"/>
  <rect x="1158.8606526182539" y="85" width="17.11393473817475" height="60" fill="#d10000" opacity="0.7"/>
  <rect x="1142.7467178800791" y="85" width="17.11393473817475" height="60" fill="#dd0000" opacity="0.7"/>
  <line x1="1158.8606526182539" y1="145" x2="1158.8606526182539" y2="153" stroke="#dd0000" stroke-width="0.8" opacity="0.5"/>
  <text x="1158.8606526182539" y="163" font-family="'Courier New', monospace" font-size="8" fill="#dd0000" text-anchor="middle" opacity="0.5">L10</text>
  <rect x="1126.6327831419046" y="85" width="17.11393473817452" height="60" fill="#e80000" opacity="0.7"/>
  <rect x="1110.5188484037303" y="85" width="17.113934738174294" height="60" fill="#f30000" opacity="0.7"/>
  <rect x="1094.4049136655556" y="85" width="17.11393473817475" height="60" fill="#fe0000" opacity="0.7"/>
  <rect x="1078.290978927381" y="85" width="17.11393473817452" height="60" fill="#ff1c00" opacity="0.7"/>
  <rect x="1062.1770441892063" y="85" width="17.11393473817475" height="60" fill="#ff3100" opacity="0.7"/>
  <line x1="1078.290978927381" y1="145" x2="1078.290978927381" y2="153" stroke="#ff3100" stroke-width="0.8" opacity="0.5"/>
  <text x="1078.290978927381" y="163" font-family="'Courier New', monospace" font-size="8" fill="#ff3100" text-anchor="middle" opacity="0.5">L15</text>
  <rect x="1046.0631094510316" y="85" width="17.11393473817475" height="60" fill="#ff4400" opacity="0.7"/>
  <rect x="1029.9491747128568" y="85" width="17.11393473817475" height="60" fill="#ff5600" opacity="0.7"/>
  <rect x="1013.8352399746824" y="85" width="17.113934738174407" height="60" fill="#ff6700" opacity="0.7"/>
  <rect x="997.7213052365079" y="85" width="17.11393473817452" height="60" fill="#ff7700" opacity="0.7"/>
  <rect x="981.6073704983332" y="85" width="17.113934738174635" height="60" fill="#ff8700" opacity="0.7"/>
  <line x1="997.7213052365079" y1="145" x2="997.7213052365079" y2="153" stroke="#ff8700" stroke-width="0.8" opacity="0.5"/>
  <text x="997.7213052365079" y="163" font-family="'Courier New', monospace" font-size="8" fill="#ff8700" text-anchor="middle" opacity="0.5">L20</text>
  <rect x="965.4934357601587" y="85" width="17.11393473817452" height="60" fill="#ff9600" opacity="0.7"/>
  <rect x="949.3795010219839" y="85" width="17.113934738174862" height="60" fill="#ffa500" opacity="0.7"/>
  <rect x="933.2655662838093" y="85" width="17.11393473817452" height="60" fill="#ffb400" opacity="0.7"/>
  <rect x="917.1516315456348" y="85" width="17.11393473817452" height="60" fill="#ffc200" opacity="0.7"/>
  <rect x="901.0376968074602" y="85" width="17.113934738174635" height="60" fill="#ffd000" opacity="0.7"/>
  <line x1="917.1516315456348" y1="145" x2="917.1516315456348" y2="153" stroke="#ffd000" stroke-width="0.8" opacity="0.5"/>
  <text x="917.1516315456348" y="163" font-family="'Courier New', monospace" font-size="8" fill="#ffd000" text-anchor="middle" opacity="0.5">L25</text>
  <rect x="884.9237620692857" y="85" width="17.11393473817452" height="60" fill="#ffde00" opacity="0.7"/>
  <rect x="868.809827331111" y="85" width="17.113934738174635" height="60" fill="#ffec00" opacity="0.7"/>
  <rect x="852.6958925929364" y="85" width="17.113934738174635" height="60" fill="#fff900" opacity="0.7"/>
  <rect x="836.5819578547618" y="85" width="17.113934738174635" height="60" fill="#f7ff00" opacity="0.7"/>
  <rect x="820.4680231165871" y="85" width="17.113934738174635" height="60" fill="#eaff00" opacity="0.7"/>
  <line x1="836.5819578547618" y1="145" x2="836.5819578547618" y2="153" stroke="#eaff00" stroke-width="0.8" opacity="0.5"/>
  <text x="836.5819578547618" y="163" font-family="'Courier New', monospace" font-size="8" fill="#eaff00" text-anchor="middle" opacity="0.5">L30</text>
  <rect x="804.3540883784126" y="85" width="17.11393473817452" height="60" fill="#deff00" opacity="0.7"/>
  <rect x="788.240153640238" y="85" width="17.113934738174635" height="60" fill="#d1ff00" opacity="0.7"/>
  <rect x="772.1262189020634" y="85" width="17.11393473817452" height="60" fill="#c4ff00" opacity="0.7"/>
  <rect x="756.0122841638888" y="85" width="17.113934738174635" height="60" fill="#b7ff00" opacity="0.7"/>
  <rect x="739.8983494257142" y="85" width="17.113934738174635" height="60" fill="#a9ff00" opacity="0.7"/>
  <line x1="756.0122841638888" y1="145" x2="756.0122841638888" y2="153" stroke="#a9ff00" stroke-width="0.8" opacity="0.5"/>
  <text x="756.0122841638888" y="163" font-family="'Courier New', monospace" font-size="8" fill="#a9ff00" text-anchor="middle" opacity="0.5">L35</text>
  <rect x="723.7844146875397" y="85" width="17.11393473817452" height="60" fill="#9bff00" opacity="0.7"/>
  <rect x="707.6704799493649" y="85" width="17.11393473817475" height="60" fill="#8dff00" opacity="0.7"/>
  <rect x="691.5565452111903" y="85" width="17.113934738174635" height="60" fill="#7fff00" opacity="0.7"/>
  <rect x="675.4426104730157" y="85" width="17.11393473817452" height="60" fill="#70ff00" opacity="0.7"/>
  <rect x="659.3286757348411" y="85" width="17.113934738174635" height="60" fill="#61ff00" opacity="0.7"/>
  <line x1="675.4426104730157" y1="145" x2="675.4426104730157" y2="153" stroke="#61ff00" stroke-width="0.8" opacity="0.5"/>
  <text x="675.4426104730157" y="163" font-family="'Courier New', monospace" font-size="8" fill="#61ff00" text-anchor="middle" opacity="0.5">L40</text>
  <rect x="643.2147409966666" y="85" width="17.11393473817452" height="60" fill="#51ff00" opacity="0.7"/>
  <rect x="627.100806258492" y="85" width="17.113934738174635" height="60" fill="#40ff00" opacity="0.7"/>
  <rect x="610.9868715203172" y="85" width="17.11393473817475" height="60" fill="#2eff00" opacity="0.7"/>
  <rect x="594.8729367821427" y="85" width="17.11393473817452" height="60" fill="#19ff00" opacity="0.7"/>
  <rect x="578.7590020439682" y="85" width="17.11393473817452" height="60" fill="#00ff06" opacity="0.7"/>
  <line x1="594.8729367821427" y1="145" x2="594.8729367821427" y2="153" stroke="#00ff06" stroke-width="0.8" opacity="0.5"/>
  <text x="594.8729367821427" y="163" font-family="'Courier New', monospace" font-size="8" fill="#00ff06" text-anchor="middle" opacity="0.5">L45</text>
  <rect x="562.6450673057935" y="85" width="17.113934738174635" height="60" fill="#00ff4c" opacity="0.7"/>
  <rect x="546.5311325676189" y="85" width="17.113934738174635" height="60" fill="#00ff82" opacity="0.7"/>
  <rect x="530.4171978294443" y="85" width="17.113934738174635" height="60" fill="#00ffb3" opacity="0.7"/>
  <rect x="514.3032630912696" y="85" width="17.113934738174635" height="60" fill="#00ffe1" opacity="0.7"/>
  <rect x="498.18932835309505" y="85" width="17.113934738174578" height="60" fill="#00f9ff" opacity="0.7"/>
  <line x1="514.3032630912696" y1="145" x2="514.3032630912696" y2="153" stroke="#00f9ff" stroke-width="0.8" opacity="0.5"/>
  <text x="514.3032630912696" y="163" font-family="'Courier New', monospace" font-size="8" fill="#00f9ff" text-anchor="middle" opacity="0.5">L50</text>
  <rect x="482.07539361492036" y="85" width="17.11393473817469" height="60" fill="#00e8ff" opacity="0.7"/>
  <rect x="465.9614588767459" y="85" width="17.113934738174464" height="60" fill="#00d6ff" opacity="0.7"/>
  <rect x="449.8475241385713" y="85" width="17.113934738174578" height="60" fill="#00c4ff" opacity="0.7"/>
  <rect x="433.7335894003966" y="85" width="17.11393473817469" height="60" fill="#00b1ff" opacity="0.7"/>
  <rect x="417.619654662222" y="85" width="17.113934738174635" height="60" fill="#009eff" opacity="0.7"/>
  <line x1="433.7335894003966" y1="145" x2="433.7335894003966" y2="153" stroke="#009eff" stroke-width="0.8" opacity="0.5"/>
  <text x="433.7335894003966" y="163" font-family="'Courier New', monospace" font-size="8" fill="#009eff" text-anchor="middle" opacity="0.5">L55</text>
  <rect x="401.5057199240474" y="85" width="17.113934738174578" height="60" fill="#008aff" opacity="0.7"/>
  <rect x="385.39178518587283" y="85" width="17.113934738174578" height="60" fill="#0076ff" opacity="0.7"/>
  <rect x="369.2778504476982" y="85" width="17.113934738174635" height="60" fill="#0060ff" opacity="0.7"/>
  <rect x="353.1639157095236" y="85" width="17.113934738174578" height="60" fill="#0049ff" opacity="0.7"/>
  <rect x="337.049980971349" y="85" width="17.113934738174635" height="60" fill="#0031ff" opacity="0.7"/>
  <line x1="353.1639157095236" y1="145" x2="353.1639157095236" y2="153" stroke="#0031ff" stroke-width="0.8" opacity="0.5"/>
  <text x="353.1639157095236" y="163" font-family="'Courier New', monospace" font-size="8" fill="#0031ff" text-anchor="middle" opacity="0.5">L60</text>
  <rect x="320.93604623317435" y="85" width="17.113934738174635" height="60" fill="#0014ff" opacity="0.7"/>
  <rect x="304.82211149499983" y="85" width="17.11393473817452" height="60" fill="#1100ff" opacity="0.7"/>
  <rect x="288.7081767568252" y="85" width="17.113934738174635" height="60" fill="#2900ff" opacity="0.7"/>
  <rect x="272.59424201865056" y="85" width="17.113934738174635" height="60" fill="#3f00ff" opacity="0.7"/>
  <rect x="256.4803072804759" y="85" width="17.113934738174635" height="60" fill="#5200ff" opacity="0.7"/>
  <line x1="272.59424201865056" y1="145" x2="272.59424201865056" y2="153" stroke="#5200ff" stroke-width="0.8" opacity="0.5"/>
  <text x="272.59424201865056" y="163" font-family="'Courier New', monospace" font-size="8" fill="#5200ff" text-anchor="middle" opacity="0.5">L65</text>
  <rect x="240.36637254230135" y="85" width="17.113934738174578" height="60" fill="#6500ff" opacity="0.7"/>
  <rect x="224.25243780412677" y="85" width="17.113934738174578" height="60" fill="#7100f3" opacity="0.7"/>
  <rect x="208.13850306595214" y="85" width="17.113934738174635" height="60" fill="#7900e4" opacity="0.7"/>
  <rect x="192.02456832777756" y="85" width="17.113934738174578" height="60" fill="#7f00d4" opacity="0.7"/>
  <rect x="175.91063358960292" y="85" width="17.113934738174635" height="60" fill="#8200c4" opacity="0.7"/>
  <line x1="192.02456832777756" y1="145" x2="192.02456832777756" y2="153" stroke="#8200c4" stroke-width="0.8" opacity="0.5"/>
  <text x="192.02456832777756" y="163" font-family="'Courier New', monospace" font-size="8" fill="#8200c4" text-anchor="middle" opacity="0.5">L70</text>
  <rect x="159.79669885142832" y="85" width="17.113934738174606" height="60" fill="#8200b4" opacity="0.7"/>
  <rect x="143.6827641132537" y="85" width="17.113934738174606" height="60" fill="#8000a3" opacity="0.7"/>
  <rect x="127.56882937507913" y="85" width="17.113934738174578" height="60" fill="#7b0092" opacity="0.7"/>
  <rect x="111.45489463690451" y="85" width="17.11393473817462" height="60" fill="#740080" opacity="0.7"/>
  <rect x="95.3409598987299" y="85" width="17.113934738174606" height="60" fill="#6a006e" opacity="0.7"/>
  <line x1="111.45489463690451" y1="145" x2="111.45489463690451" y2="153" stroke="#6a006e" stroke-width="0.8" opacity="0.5"/>
  <text x="111.45489463690451" y="163" font-family="'Courier New', monospace" font-size="8" fill="#6a006e" text-anchor="middle" opacity="0.5">L75</text>
  <rect x="83.3409598987299" y="85" width="13" height="60" fill="#610061" opacity="0.7"/>
<text x="95" y="175" font-family="'Courier New', monospace" font-size="8" fill="#8866aa" text-anchor="end" opacity="0.4">PLANCK</text>
<text x="1325" y="175" font-family="'Courier New', monospace" font-size="8" fill="#ff5533" text-anchor="start" opacity="0.4">HUBBLE</text>
<text x="700" y="175" font-family="'Courier New', monospace" font-size="8" fill="#886655" text-anchor="middle" opacity="0.35">← smaller mass · log₁₀(M/kg) · larger mass →</text>
<!-- Concentric rings: each level = spectral ring -->
  <circle cx="700" cy="520" r="250.0" fill="none" stroke="#610000" stroke-width="3.5" opacity="0.70" stroke-dasharray="15,20,10,15" filter="url(#glow)"/>
  <text x="885" y="343" font-family="'Courier New', monospace" font-size="8" fill="#610000" text-anchor="start" opacity="0.55">L0 · 10^52 kg</text>
  <circle cx="700" cy="520" r="247.0" fill="none" stroke="#6f0000" stroke-width="3.5" opacity="0.69" stroke-dasharray="23,32,15,25" filter="url(#glow)"/>
  <circle cx="700" cy="520" r="243.9" fill="none" stroke="#7c0000" stroke-width="3.4" opacity="0.69" stroke-dasharray="31,44,20,35" filter="url(#glow)"/>
  <circle cx="700" cy="520" r="240.9" fill="none" stroke="#890000" stroke-width="3.4" opacity="0.68" stroke-dasharray="39,56,25,45" filter="url(#glow)"/>
  <circle cx="700" cy="520" r="237.8" fill="none" stroke="#960000" stroke-width="3.4" opacity="0.67" filter="url(#glow)"/>
  <circle cx="700" cy="520" r="234.8" fill="none" stroke="#a20000" stroke-width="3.3" opacity="0.66" filter="url(#glow)"/>
  <text x="874" y="354" font-family="'Courier New', monospace" font-size="8" fill="#a20000" text-anchor="start" opacity="0.55">L5 · 10^48 kg</text>
  <circle cx="700" cy="520" r="231.8" fill="none" stroke="#ae0000" stroke-width="3.3" opacity="0.66" filter="url(#glow)"/>
  <circle cx="700" cy="520" r="228.7" fill="none" stroke="#ba0000" stroke-width="3.3" opacity="0.65" filter="url(#glow)"/>
  <circle cx="700" cy="520" r="225.7" fill="none" stroke="#c60000" stroke-width="3.2" opacity="0.64" filter="url(#glow)"/>
  <circle cx="700" cy="520" r="222.7" fill="none" stroke="#d10000" stroke-width="3.2" opacity="0.63" filter="url(#glow)"/>
  <circle cx="700" cy="520" r="219.6" fill="none" stroke="#dd0000" stroke-width="3.2" opacity="0.63" filter="url(#glow)"/>
  <text x="863" y="365" font-family="'Courier New', monospace" font-size="8" fill="#dd0000" text-anchor="start" opacity="0.55">L10 · 10^44 kg</text>
  <circle cx="700" cy="520" r="216.6" fill="none" stroke="#e80000" stroke-width="3.1" opacity="0.62" filter="url(#glow)"/>
  <circle cx="700" cy="520" r="213.5" fill="none" stroke="#f30000" stroke-width="3.1" opacity="0.61" filter="url(#glow)"/>
  <circle cx="700" cy="520" r="210.5" fill="none" stroke="#fe0000" stroke-width="3.1" opacity="0.61" filter="url(#glow)"/>
  <circle cx="700" cy="520" r="207.5" fill="none" stroke="#ff1c00" stroke-width="3.0" opacity="0.60" filter="url(#glow)"/>
  <circle cx="700" cy="520" r="204.4" fill="none" stroke="#ff3100" stroke-width="3.0" opacity="0.59" filter="url(#glow)"/>
  <text x="853" y="375" font-family="'Courier New', monospace" font-size="8" fill="#ff3100" text-anchor="start" opacity="0.55">L15 · 10^40 kg</text>
  <circle cx="700" cy="520" r="201.4" fill="none" stroke="#ff4400" stroke-width="3.0" opacity="0.58" filter="url(#glow)"/>
  <circle cx="700" cy="520" r="198.4" fill="none" stroke="#ff5600" stroke-width="2.9" opacity="0.58" filter="url(#glow)"/>
  <circle cx="700" cy="520" r="195.3" fill="none" stroke="#ff6700" stroke-width="2.9" opacity="0.57" filter="url(#glow)"/>
  <circle cx="700" cy="520" r="192.3" fill="none" stroke="#ff7700" stroke-width="2.9" opacity="0.56" filter="url(#glow)"/>
  <circle cx="700" cy="520" r="189.2" fill="none" stroke="#ff8700" stroke-width="2.8" opacity="0.55" filter="url(#glow)"/>
  <text x="842" y="386" font-family="'Courier New', monospace" font-size="8" fill="#ff8700" text-anchor="start" opacity="0.55">L20 · 10^36 kg</text>
  <circle cx="700" cy="520" r="186.2" fill="none" stroke="#ff9600" stroke-width="2.8" opacity="0.55" filter="url(#glow)"/>
  <circle cx="700" cy="520" r="183.2" fill="none" stroke="#ffa500" stroke-width="2.8" opacity="0.54" filter="url(#glow)"/>
  <circle cx="700" cy="520" r="180.1" fill="none" stroke="#ffb400" stroke-width="2.7" opacity="0.53" filter="url(#glow)"/>
  <circle cx="700" cy="520" r="177.1" fill="none" stroke="#ffc200" stroke-width="2.7" opacity="0.53" filter="url(#glow)"/>
  <circle cx="700" cy="520" r="174.1" fill="none" stroke="#ffd000" stroke-width="2.7" opacity="0.52" filter="url(#glow)"/>
  <circle cx="700" cy="520" r="171.0" fill="none" stroke="#ffde00" stroke-width="2.6" opacity="0.51" filter="url(#glow)"/>
  <circle cx="700" cy="520" r="168.0" fill="none" stroke="#ffec00" stroke-width="2.6" opacity="0.50" filter="url(#glow)"/>
  <circle cx="700" cy="520" r="164.9" fill="none" stroke="#fff900" stroke-width="2.6" opacity="0.50" filter="url(#glow)"/>
  <circle cx="700" cy="520" r="161.9" fill="none" stroke="#f7ff00" stroke-width="2.5" opacity="0.49" filter="url(#glow)"/>
  <circle cx="700" cy="520" r="158.9" fill="none" stroke="#eaff00" stroke-width="2.5" opacity="0.48" filter="url(#glow)"/>
  <text x="820" y="408" font-family="'Courier New', monospace" font-size="8" fill="#eaff00" text-anchor="start" opacity="0.55">L30 · 10^28 kg</text>
  <circle cx="700" cy="520" r="155.8" fill="none" stroke="#deff00" stroke-width="2.5" opacity="0.47" filter="url(#glow)"/>
  <circle cx="700" cy="520" r="152.8" fill="none" stroke="#d1ff00" stroke-width="2.4" opacity="0.47" filter="url(#glow)"/>
  <circle cx="700" cy="520" r="149.8" fill="none" stroke="#c4ff00" stroke-width="2.4" opacity="0.46" filter="url(#glow)"/>
  <circle cx="700" cy="520" r="146.7" fill="none" stroke="#b7ff00" stroke-width="2.4" opacity="0.45" filter="url(#glow)"/>
  <circle cx="700" cy="520" r="143.7" fill="none" stroke="#a9ff00" stroke-width="2.3" opacity="0.45" filter="url(#glow)"/>
  <circle cx="700" cy="520" r="140.6" fill="none" stroke="#9bff00" stroke-width="2.3" opacity="0.44" filter="url(#glow)"/>
  <circle cx="700" cy="520" r="137.6" fill="none" stroke="#8dff00" stroke-width="2.3" opacity="0.43" filter="url(#glow)"/>
  <circle cx="700" cy="520" r="134.6" fill="none" stroke="#7fff00" stroke-width="2.2" opacity="0.42" filter="url(#glow)"/>
  <circle cx="700" cy="520" r="131.5" fill="none" stroke="#70ff00" stroke-width="2.2" opacity="0.42" filter="url(#glow)"/>
  <circle cx="700" cy="520" r="128.5" fill="none" stroke="#61ff00" stroke-width="2.2" opacity="0.41" filter="url(#glow)"/>
  <text x="799" y="429" font-family="'Courier New', monospace" font-size="8" fill="#61ff00" text-anchor="start" opacity="0.55">L40 · 10^20 kg</text>
  <circle cx="700" cy="520" r="125.4" fill="none" stroke="#51ff00" stroke-width="2.1" opacity="0.40" filter="url(#glow)"/>
  <circle cx="700" cy="520" r="122.4" fill="none" stroke="#40ff00" stroke-width="2.1" opacity="0.39" filter="url(#glow)"/>
  <circle cx="700" cy="520" r="119.4" fill="none" stroke="#2eff00" stroke-width="2.1" opacity="0.39" filter="url(#glow)"/>
  <circle cx="700" cy="520" r="116.3" fill="none" stroke="#19ff00" stroke-width="2.0" opacity="0.38" filter="url(#glow)"/>
  <circle cx="700" cy="520" r="113.3" fill="none" stroke="#00ff06" stroke-width="2.0" opacity="0.37" filter="url(#glow)"/>
  <circle cx="700" cy="520" r="110.3" fill="none" stroke="#00ff4c" stroke-width="2.0" opacity="0.37" filter="url(#glow)"/>
  <circle cx="700" cy="520" r="107.2" fill="none" stroke="#00ff82" stroke-width="1.9" opacity="0.36" filter="url(#glow)"/>
  <circle cx="700" cy="520" r="104.2" fill="none" stroke="#00ffb3" stroke-width="1.9" opacity="0.35" filter="url(#glow)"/>
  <circle cx="700" cy="520" r="101.1" fill="none" stroke="#00ffe1" stroke-width="1.9" opacity="0.34" filter="url(#glow)"/>
  <circle cx="700" cy="520" r="98.1" fill="none" stroke="#00f9ff" stroke-width="1.8" opacity="0.34" filter="url(#glow)"/>
  <text x="777" y="451" font-family="'Courier New', monospace" font-size="8" fill="#00f9ff" text-anchor="start" opacity="0.55">L50 · 10^12 kg</text>
  <circle cx="700" cy="520" r="95.1" fill="none" stroke="#00e8ff" stroke-width="1.8" opacity="0.33" filter="url(#glow)"/>
  <circle cx="700" cy="520" r="92.0" fill="none" stroke="#00d6ff" stroke-width="1.8" opacity="0.32" filter="url(#glow)"/>
  <circle cx="700" cy="520" r="89.0" fill="none" stroke="#00c4ff" stroke-width="1.7" opacity="0.31" filter="url(#glow)"/>
  <circle cx="700" cy="520" r="86.0" fill="none" stroke="#00b1ff" stroke-width="1.7" opacity="0.31" filter="url(#glow)"/>
  <circle cx="700" cy="520" r="82.9" fill="none" stroke="#009eff" stroke-width="1.7" opacity="0.30" filter="url(#glow)"/>
  <circle cx="700" cy="520" r="79.9" fill="none" stroke="#008aff" stroke-width="1.7" opacity="0.29" filter="url(#glow)"/>
  <circle cx="700" cy="520" r="76.8" fill="none" stroke="#0076ff" stroke-width="1.6" opacity="0.29" filter="url(#glow)"/>
  <circle cx="700" cy="520" r="73.8" fill="none" stroke="#0060ff" stroke-width="1.6" opacity="0.28" filter="url(#glow)"/>
  <circle cx="700" cy="520" r="70.8" fill="none" stroke="#0049ff" stroke-width="1.6" opacity="0.27" filter="url(#glow)"/>
  <circle cx="700" cy="520" r="67.7" fill="none" stroke="#0031ff" stroke-width="1.5" opacity="0.26" filter="url(#glow)"/>
  <text x="756" y="472" font-family="'Courier New', monospace" font-size="8" fill="#0031ff" text-anchor="start" opacity="0.55">L60 · 10^4 kg</text>
  <circle cx="700" cy="520" r="64.7" fill="none" stroke="#0014ff" stroke-width="1.5" opacity="0.26" filter="url(#glow)"/>
  <circle cx="700" cy="520" r="61.7" fill="none" stroke="#1100ff" stroke-width="1.5" opacity="0.25" filter="url(#glow)"/>
  <circle cx="700" cy="520" r="58.6" fill="none" stroke="#2900ff" stroke-width="1.4" opacity="0.24" filter="url(#glow)"/>
  <circle cx="700" cy="520" r="55.6" fill="none" stroke="#3f00ff" stroke-width="1.4" opacity="0.24" filter="url(#glow)"/>
  <circle cx="700" cy="520" r="52.5" fill="none" stroke="#5200ff" stroke-width="1.4" opacity="0.23" filter="url(#glow)"/>
  <circle cx="700" cy="520" r="49.5" fill="none" stroke="#6500ff" stroke-width="1.3" opacity="0.22" filter="url(#glow)"/>
  <circle cx="700" cy="520" r="46.5" fill="none" stroke="#7100f3" stroke-width="1.3" opacity="0.21" filter="url(#glow)"/>
  <circle cx="700" cy="520" r="43.4" fill="none" stroke="#7900e4" stroke-width="1.3" opacity="0.21" filter="url(#glow)"/>
  <circle cx="700" cy="520" r="40.4" fill="none" stroke="#7f00d4" stroke-width="1.2" opacity="0.20" filter="url(#glow)"/>
  <circle cx="700" cy="520" r="37.3" fill="none" stroke="#8200c4" stroke-width="1.2" opacity="0.19" filter="url(#glow)"/>
  <text x="734" y="494" font-family="'Courier New', monospace" font-size="8" fill="#8200c4" text-anchor="start" opacity="0.55">L70 · 10^-3 kg</text>
  <circle cx="700" cy="520" r="34.3" fill="none" stroke="#8200b4" stroke-width="1.2" opacity="0.18" filter="url(#glow)"/>
  <circle cx="700" cy="520" r="31.3" fill="none" stroke="#8000a3" stroke-width="1.1" opacity="0.18" filter="url(#glow)"/>
  <circle cx="700" cy="520" r="28.2" fill="none" stroke="#7b0092" stroke-width="1.1" opacity="0.17" filter="url(#glow)"/>
  <circle cx="700" cy="520" r="25.2" fill="none" stroke="#740080" stroke-width="1.1" opacity="0.16" filter="url(#glow)"/>
  <circle cx="700" cy="520" r="22.2" fill="none" stroke="#6a006e" stroke-width="1.0" opacity="0.16" filter="url(#glow)"/>
  <text x="724" y="504" font-family="'Courier New', monospace" font-size="8" fill="#6a006e" text-anchor="start" opacity="0.55">L75 · 10^-7 kg</text>
  <circle cx="700" cy="520" r="19.1" fill="none" stroke="#610061" stroke-width="1.0" opacity="0.15" filter="url(#glow)"/>
  <circle cx="700" cy="520" r="3" fill="#8855cc" opacity="0.6" filter="url(#bigGlow)"/>
  <text x="700" y="532" font-family="'Courier New', monospace" font-size="7" fill="#8866aa" text-anchor="middle" opacity="0.4">Planck</text>
  <rect x="100" y="790" width="1220" height="25" fill="#0a0510" rx="3" opacity="0.5"/>
  <text x="95" y="805" font-family="'Courier New', monospace" font-size="8" fill="#ff9955" text-anchor="end" opacity="0.5">Interior time τ</text>
  <circle cx="1320.0" cy="792.0" r="2.5" fill="#610000" opacity="0.6"/>
  <circle cx="1303.9" cy="792.3" r="2.5" fill="#6f0000" opacity="0.6"/>
  <circle cx="1287.8" cy="792.6" r="2.5" fill="#7c0000" opacity="0.6"/>
  <circle cx="1271.7" cy="792.8" r="2.5" fill="#890000" opacity="0.6"/>
  <circle cx="1255.5" cy="793.1" r="2.5" fill="#960000" opacity="0.6"/>
  <circle cx="1239.4" cy="793.4" r="2.5" fill="#a20000" opacity="0.6"/>
  <circle cx="1223.3" cy="793.7" r="2.5" fill="#ae0000" opacity="0.6"/>
  <circle cx="1207.2" cy="793.9" r="2.5" fill="#ba0000" opacity="0.6"/>
  <circle cx="1191.1" cy="794.2" r="2.5" fill="#c60000" opacity="0.6"/>
  <circle cx="1175.0" cy="794.5" r="2.5" fill="#d10000" opacity="0.6"/>
  <circle cx="1158.9" cy="794.8" r="2.5" fill="#dd0000" opacity="0.6"/>
  <circle cx="1142.7" cy="795.0" r="2.5" fill="#e80000" opacity="0.6"/>
  <circle cx="1126.6" cy="795.3" r="2.5" fill="#f30000" opacity="0.6"/>
  <circle cx="1110.5" cy="795.6" r="2.5" fill="#fe0000" opacity="0.6"/>
  <circle cx="1094.4" cy="795.9" r="2.5" fill="#ff1c00" opacity="0.6"/>
  <circle cx="1078.3" cy="796.1" r="2.5" fill="#ff3100" opacity="0.6"/>
  <circle cx="1062.2" cy="796.4" r="2.5" fill="#ff4400" opacity="0.6"/>
  <circle cx="1046.1" cy="796.7" r="2.5" fill="#ff5600" opacity="0.6"/>
  <circle cx="1029.9" cy="797.0" r="2.5" fill="#ff6700" opacity="0.6"/>
  <circle cx="1013.8" cy="797.2" r="2.5" fill="#ff7700" opacity="0.6"/>
  <circle cx="997.7" cy="797.5" r="2.5" fill="#ff8700" opacity="0.6"/>
  <circle cx="981.6" cy="797.8" r="2.5" fill="#ff9600" opacity="0.6"/>
  <circle cx="965.5" cy="798.1" r="2.5" fill="#ffa500" opacity="0.6"/>
  <circle cx="949.4" cy="798.4" r="2.5" fill="#ffb400" opacity="0.6"/>
  <circle cx="933.3" cy="798.6" r="2.5" fill="#ffc200" opacity="0.6"/>
  <circle cx="917.2" cy="798.9" r="2.5" fill="#ffd000" opacity="0.6"/>
  <circle cx="901.0" cy="799.2" r="2.5" fill="#ffde00" opacity="0.6"/>
  <circle cx="884.9" cy="799.5" r="2.5" fill="#ffec00" opacity="0.6"/>
  <circle cx="868.8" cy="799.7" r="2.5" fill="#fff900" opacity="0.6"/>
  <circle cx="852.7" cy="800.0" r="2.5" fill="#f7ff00" opacity="0.6"/>
  <circle cx="836.6" cy="800.3" r="2.5" fill="#eaff00" opacity="0.6"/>
  <circle cx="820.5" cy="800.6" r="2.5" fill="#deff00" opacity="0.6"/>
  <circle cx="804.4" cy="800.8" r="2.5" fill="#d1ff00" opacity="0.6"/>
  <circle cx="788.2" cy="801.1" r="2.5" fill="#c4ff00" opacity="0.6"/>
  <circle cx="772.1" cy="801.4" r="2.5" fill="#b7ff00" opacity="0.6"/>
  <circle cx="756.0" cy="801.7" r="2.5" fill="#a9ff00" opacity="0.6"/>
  <circle cx="739.9" cy="801.9" r="2.5" fill="#9bff00" opacity="0.6"/>
  <circle cx="723.8" cy="802.2" r="2.5" fill="#8dff00" opacity="0.6"/>
  <circle cx="707.7" cy="802.5" r="2.5" fill="#7fff00" opacity="0.6"/>
  <circle cx="691.6" cy="802.8" r="2.5" fill="#70ff00" opacity="0.6"/>
  <circle cx="675.4" cy="803.1" r="2.5" fill="#61ff00" opacity="0.6"/>
  <circle cx="659.3" cy="803.3" r="2.5" fill="#51ff00" opacity="0.6"/>
  <circle cx="643.2" cy="803.6" r="2.5" fill="#40ff00" opacity="0.6"/>
  <circle cx="627.1" cy="803.9" r="2.5" fill="#2eff00" opacity="0.6"/>
  <circle cx="611.0" cy="804.2" r="2.5" fill="#19ff00" opacity="0.6"/>
  <circle cx="594.9" cy="804.4" r="2.5" fill="#00ff06" opacity="0.6"/>
  <circle cx="578.8" cy="804.7" r="2.5" fill="#00ff4c" opacity="0.6"/>
  <circle cx="562.6" cy="805.0" r="2.5" fill="#00ff82" opacity="0.6"/>
  <circle cx="546.5" cy="805.3" r="2.5" fill="#00ffb3" opacity="0.6"/>
  <circle cx="530.4" cy="805.5" r="2.5" fill="#00ffe1" opacity="0.6"/>
  <circle cx="514.3" cy="805.8" r="2.5" fill="#00f9ff" opacity="0.6"/>
  <circle cx="498.2" cy="806.1" r="2.5" fill="#00e8ff" opacity="0.6"/>
  <circle cx="482.1" cy="806.4" r="2.5" fill="#00d6ff" opacity="0.6"/>
  <circle cx="466.0" cy="806.6" r="2.5" fill="#00c4ff" opacity="0.6"/>
  <circle cx="449.8" cy="806.9" r="2.5" fill="#00b1ff" opacity="0.6"/>
  <circle cx="433.7" cy="807.2" r="2.5" fill="#009eff" opacity="0.6"/>
  <circle cx="417.6" cy="807.5" r="2.5" fill="#008aff" opacity="0.6"/>
  <circle cx="401.5" cy="807.8" r="2.5" fill="#0076ff" opacity="0.6"/>
  <circle cx="385.4" cy="808.0" r="2.5" fill="#0060ff" opacity="0.6"/>
  <circle cx="369.3" cy="808.3" r="2.5" fill="#0049ff" opacity="0.6"/>
  <circle cx="353.2" cy="808.6" r="2.5" fill="#0031ff" opacity="0.6"/>
  <circle cx="337.0" cy="808.9" r="2.5" fill="#0014ff" opacity="0.6"/>
  <circle cx="320.9" cy="809.1" r="2.5" fill="#1100ff" opacity="0.6"/>
  <circle cx="304.8" cy="809.4" r="2.5" fill="#2900ff" opacity="0.6"/>
  <circle cx="288.7" cy="809.7" r="2.5" fill="#3f00ff" opacity="0.6"/>
  <circle cx="272.6" cy="810.0" r="2.5" fill="#5200ff" opacity="0.6"/>
  <circle cx="256.5" cy="810.2" r="2.5" fill="#6500ff" opacity="0.6"/>
  <circle cx="240.4" cy="810.5" r="2.5" fill="#7100f3" opacity="0.6"/>
  <circle cx="224.3" cy="810.8" r="2.5" fill="#7900e4" opacity="0.6"/>
  <circle cx="208.1" cy="811.1" r="2.5" fill="#7f00d4" opacity="0.6"/>
  <circle cx="192.0" cy="811.3" r="2.5" fill="#8200c4" opacity="0.6"/>
  <circle cx="175.9" cy="811.6" r="2.5" fill="#8200b4" opacity="0.6"/>
  <circle cx="159.8" cy="811.9" r="2.5" fill="#8000a3" opacity="0.6"/>
  <circle cx="143.7" cy="812.2" r="2.5" fill="#7b0092" opacity="0.6"/>
  <circle cx="127.6" cy="812.4" r="2.5" fill="#740080" opacity="0.6"/>
  <circle cx="111.5" cy="812.7" r="2.5" fill="#6a006e" opacity="0.6"/>
  <circle cx="95.3" cy="813.0" r="2.5" fill="#610061" opacity="0.6"/>
  <text x="102" y="800" font-family="'Courier New', monospace" font-size="6" fill="#ff9955" opacity="0.3">10^-43</text>
  <text x="1318" y="800" font-family="'Courier New', monospace" font-size="6" fill="#ff9955" opacity="0.3" text-anchor="end">10^17</text>
  <rect x="100" y="823" width="1220" height="25" fill="#0a0510" rx="3" opacity="0.5"/>
  <text x="95" y="838" font-family="'Courier New', monospace" font-size="8" fill="#ffcc44" text-anchor="end" opacity="0.5">BH entropy S/k_B</text>
  <circle cx="1320.0" cy="825.0" r="2.5" fill="#610000" opacity="0.6"/>
  <circle cx="1303.9" cy="825.3" r="2.5" fill="#6f0000" opacity="0.6"/>
  <circle cx="1287.8" cy="825.6" r="2.5" fill="#7c0000" opacity="0.6"/>
  <circle cx="1271.7" cy="825.8" r="2.5" fill="#890000" opacity="0.6"/>
  <circle cx="1255.5" cy="826.1" r="2.5" fill="#960000" opacity="0.6"/>
  <circle cx="1239.4" cy="826.4" r="2.5" fill="#a20000" opacity="0.6"/>
  <circle cx="1223.3" cy="826.7" r="2.5" fill="#ae0000" opacity="0.6"/>
  <circle cx="1207.2" cy="826.9" r="2.5" fill="#ba0000" opacity="0.6"/>
  <circle cx="1191.1" cy="827.2" r="2.5" fill="#c60000" opacity="0.6"/>
  <circle cx="1175.0" cy="827.5" r="2.5" fill="#d10000" opacity="0.6"/>
  <circle cx="1158.9" cy="827.8" r="2.5" fill="#dd0000" opacity="0.6"/>
  <circle cx="1142.7" cy="828.0" r="2.5" fill="#e80000" opacity="0.6"/>
  <circle cx="1126.6" cy="828.3" r="2.5" fill="#f30000" opacity="0.6"/>
  <circle cx="1110.5" cy="828.6" r="2.5" fill="#fe0000" opacity="0.6"/>
  <circle cx="1094.4" cy="828.9" r="2.5" fill="#ff1c00" opacity="0.6"/>
  <circle cx="1078.3" cy="829.1" r="2.5" fill="#ff3100" opacity="0.6"/>
  <circle cx="1062.2" cy="829.4" r="2.5" fill="#ff4400" opacity="0.6"/>
  <circle cx="1046.1" cy="829.7" r="2.5" fill="#ff5600" opacity="0.6"/>
  <circle cx="1029.9" cy="830.0" r="2.5" fill="#ff6700" opacity="0.6"/>
  <circle cx="1013.8" cy="830.2" r="2.5" fill="#ff7700" opacity="0.6"/>
  <circle cx="997.7" cy="830.5" r="2.5" fill="#ff8700" opacity="0.6"/>
  <circle cx="981.6" cy="830.8" r="2.5" fill="#ff9600" opacity="0.6"/>
  <circle cx="965.5" cy="831.1" r="2.5" fill="#ffa500" opacity="0.6"/>
  <circle cx="949.4" cy="831.4" r="2.5" fill="#ffb400" opacity="0.6"/>
  <circle cx="933.3" cy="831.6" r="2.5" fill="#ffc200" opacity="0.6"/>
  <circle cx="917.2" cy="831.9" r="2.5" fill="#ffd000" opacity="0.6"/>
  <circle cx="901.0" cy="832.2" r="2.5" fill="#ffde00" opacity="0.6"/>
  <circle cx="884.9" cy="832.5" r="2.5" fill="#ffec00" opacity="0.6"/>
  <circle cx="868.8" cy="832.7" r="2.5" fill="#fff900" opacity="0.6"/>
  <circle cx="852.7" cy="833.0" r="2.5" fill="#f7ff00" opacity="0.6"/>
  <circle cx="836.6" cy="833.3" r="2.5" fill="#eaff00" opacity="0.6"/>
  <circle cx="820.5" cy="833.6" r="2.5" fill="#deff00" opacity="0.6"/>
  <circle cx="804.4" cy="833.8" r="2.5" fill="#d1ff00" opacity="0.6"/>
  <circle cx="788.2" cy="834.1" r="2.5" fill="#c4ff00" opacity="0.6"/>
  <circle cx="772.1" cy="834.4" r="2.5" fill="#b7ff00" opacity="0.6"/>
  <circle cx="756.0" cy="834.7" r="2.5" fill="#a9ff00" opacity="0.6"/>
  <circle cx="739.9" cy="834.9" r="2.5" fill="#9bff00" opacity="0.6"/>
  <circle cx="723.8" cy="835.2" r="2.5" fill="#8dff00" opacity="0.6"/>
  <circle cx="707.7" cy="835.5" r="2.5" fill="#7fff00" opacity="0.6"/>
  <circle cx="691.6" cy="835.8" r="2.5" fill="#70ff00" opacity="0.6"/>
  <circle cx="675.4" cy="836.1" r="2.5" fill="#61ff00" opacity="0.6"/>
  <circle cx="659.3" cy="836.3" r="2.5" fill="#51ff00" opacity="0.6"/>
  <circle cx="643.2" cy="836.6" r="2.5" fill="#40ff00" opacity="0.6"/>
  <circle cx="627.1" cy="836.9" r="2.5" fill="#2eff00" opacity="0.6"/>
  <circle cx="611.0" cy="837.2" r="2.5" fill="#19ff00" opacity="0.6"/>
  <circle cx="594.9" cy="837.4" r="2.5" fill="#00ff06" opacity="0.6"/>
  <circle cx="578.8" cy="837.7" r="2.5" fill="#00ff4c" opacity="0.6"/>
  <circle cx="562.6" cy="838.0" r="2.5" fill="#00ff82" opacity="0.6"/>
  <circle cx="546.5" cy="838.3" r="2.5" fill="#00ffb3" opacity="0.6"/>
  <circle cx="530.4" cy="838.5" r="2.5" fill="#00ffe1" opacity="0.6"/>
  <circle cx="514.3" cy="838.8" r="2.5" fill="#00f9ff" opacity="0.6"/>
  <circle cx="498.2" cy="839.1" r="2.5" fill="#00e8ff" opacity="0.6"/>
  <circle cx="482.1" cy="839.4" r="2.5" fill="#00d6ff" opacity="0.6"/>
  <circle cx="466.0" cy="839.6" r="2.5" fill="#00c4ff" opacity="0.6"/>
  <circle cx="449.8" cy="839.9" r="2.5" fill="#00b1ff" opacity="0.6"/>
  <circle cx="433.7" cy="840.2" r="2.5" fill="#009eff" opacity="0.6"/>
  <circle cx="417.6" cy="840.5" r="2.5" fill="#008aff" opacity="0.6"/>
  <circle cx="401.5" cy="840.8" r="2.5" fill="#0076ff" opacity="0.6"/>
  <circle cx="385.4" cy="841.0" r="2.5" fill="#0060ff" opacity="0.6"/>
  <circle cx="369.3" cy="841.3" r="2.5" fill="#0049ff" opacity="0.6"/>
  <circle cx="353.2" cy="841.6" r="2.5" fill="#0031ff" opacity="0.6"/>
  <circle cx="337.0" cy="841.9" r="2.5" fill="#0014ff" opacity="0.6"/>
  <circle cx="320.9" cy="842.1" r="2.5" fill="#1100ff" opacity="0.6"/>
  <circle cx="304.8" cy="842.4" r="2.5" fill="#2900ff" opacity="0.6"/>
  <circle cx="288.7" cy="842.7" r="2.5" fill="#3f00ff" opacity="0.6"/>
  <circle cx="272.6" cy="843.0" r="2.5" fill="#5200ff" opacity="0.6"/>
  <circle cx="256.5" cy="843.2" r="2.5" fill="#6500ff" opacity="0.6"/>
  <circle cx="240.4" cy="843.5" r="2.5" fill="#7100f3" opacity="0.6"/>
  <circle cx="224.3" cy="843.8" r="2.5" fill="#7900e4" opacity="0.6"/>
  <circle cx="208.1" cy="844.1" r="2.5" fill="#7f00d4" opacity="0.6"/>
  <circle cx="192.0" cy="844.3" r="2.5" fill="#8200c4" opacity="0.6"/>
  <circle cx="175.9" cy="844.6" r="2.5" fill="#8200b4" opacity="0.6"/>
  <circle cx="159.8" cy="844.9" r="2.5" fill="#8000a3" opacity="0.6"/>
  <circle cx="143.7" cy="845.2" r="2.5" fill="#7b0092" opacity="0.6"/>
  <circle cx="127.6" cy="845.4" r="2.5" fill="#740080" opacity="0.6"/>
  <circle cx="111.5" cy="845.7" r="2.5" fill="#6a006e" opacity="0.6"/>
  <circle cx="95.3" cy="846.0" r="2.5" fill="#610061" opacity="0.6"/>
  <text x="102" y="833" font-family="'Courier New', monospace" font-size="6" fill="#ffcc44" opacity="0.3">10^0</text>
  <text x="1318" y="833" font-family="'Courier New', monospace" font-size="6" fill="#ffcc44" opacity="0.3" text-anchor="end">10^122</text>
  <rect x="100" y="856" width="1220" height="25" fill="#0a0510" rx="3" opacity="0.5"/>
  <text x="95" y="871" font-family="'Courier New', monospace" font-size="8" fill="#55aaff" text-anchor="end" opacity="0.5">Schwarzschild r_s</text>
  <circle cx="1320.0" cy="858.0" r="2.5" fill="#610000" opacity="0.6"/>
  <circle cx="1303.9" cy="858.3" r="2.5" fill="#6f0000" opacity="0.6"/>
  <circle cx="1287.8" cy="858.6" r="2.5" fill="#7c0000" opacity="0.6"/>
  <circle cx="1271.7" cy="858.8" r="2.5" fill="#890000" opacity="0.6"/>
  <circle cx="1255.5" cy="859.1" r="2.5" fill="#960000" opacity="0.6"/>
  <circle cx="1239.4" cy="859.4" r="2.5" fill="#a20000" opacity="0.6"/>
  <circle cx="1223.3" cy="859.7" r="2.5" fill="#ae0000" opacity="0.6"/>
  <circle cx="1207.2" cy="859.9" r="2.5" fill="#ba0000" opacity="0.6"/>
  <circle cx="1191.1" cy="860.2" r="2.5" fill="#c60000" opacity="0.6"/>
  <circle cx="1175.0" cy="860.5" r="2.5" fill="#d10000" opacity="0.6"/>
  <circle cx="1158.9" cy="860.8" r="2.5" fill="#dd0000" opacity="0.6"/>
  <circle cx="1142.7" cy="861.0" r="2.5" fill="#e80000" opacity="0.6"/>
  <circle cx="1126.6" cy="861.3" r="2.5" fill="#f30000" opacity="0.6"/>
  <circle cx="1110.5" cy="861.6" r="2.5" fill="#fe0000" opacity="0.6"/>
  <circle cx="1094.4" cy="861.9" r="2.5" fill="#ff1c00" opacity="0.6"/>
  <circle cx="1078.3" cy="862.1" r="2.5" fill="#ff3100" opacity="0.6"/>
  <circle cx="1062.2" cy="862.4" r="2.5" fill="#ff4400" opacity="0.6"/>
  <circle cx="1046.1" cy="862.7" r="2.5" fill="#ff5600" opacity="0.6"/>
  <circle cx="1029.9" cy="863.0" r="2.5" fill="#ff6700" opacity="0.6"/>
  <circle cx="1013.8" cy="863.2" r="2.5" fill="#ff7700" opacity="0.6"/>
  <circle cx="997.7" cy="863.5" r="2.5" fill="#ff8700" opacity="0.6"/>
  <circle cx="981.6" cy="863.8" r="2.5" fill="#ff9600" opacity="0.6"/>
  <circle cx="965.5" cy="864.1" r="2.5" fill="#ffa500" opacity="0.6"/>
  <circle cx="949.4" cy="864.4" r="2.5" fill="#ffb400" opacity="0.6"/>
  <circle cx="933.3" cy="864.6" r="2.5" fill="#ffc200" opacity="0.6"/>
  <circle cx="917.2" cy="864.9" r="2.5" fill="#ffd000" opacity="0.6"/>
  <circle cx="901.0" cy="865.2" r="2.5" fill="#ffde00" opacity="0.6"/>
  <circle cx="884.9" cy="865.5" r="2.5" fill="#ffec00" opacity="0.6"/>
  <circle cx="868.8" cy="865.7" r="2.5" fill="#fff900" opacity="0.6"/>
  <circle cx="852.7" cy="866.0" r="2.5" fill="#f7ff00" opacity="0.6"/>
  <circle cx="836.6" cy="866.3" r="2.5" fill="#eaff00" opacity="0.6"/>
  <circle cx="820.5" cy="866.6" r="2.5" fill="#deff00" opacity="0.6"/>
  <circle cx="804.4" cy="866.8" r="2.5" fill="#d1ff00" opacity="0.6"/>
  <circle cx="788.2" cy="867.1" r="2.5" fill="#c4ff00" opacity="0.6"/>
  <circle cx="772.1" cy="867.4" r="2.5" fill="#b7ff00" opacity="0.6"/>
  <circle cx="756.0" cy="867.7" r="2.5" fill="#a9ff00" opacity="0.6"/>
  <circle cx="739.9" cy="867.9" r="2.5" fill="#9bff00" opacity="0.6"/>
  <circle cx="723.8" cy="868.2" r="2.5" fill="#8dff00" opacity="0.6"/>
  <circle cx="707.7" cy="868.5" r="2.5" fill="#7fff00" opacity="0.6"/>
  <circle cx="691.6" cy="868.8" r="2.5" fill="#70ff00" opacity="0.6"/>
  <circle cx="675.4" cy="869.1" r="2.5" fill="#61ff00" opacity="0.6"/>
  <circle cx="659.3" cy="869.3" r="2.5" fill="#51ff00" opacity="0.6"/>
  <circle cx="643.2" cy="869.6" r="2.5" fill="#40ff00" opacity="0.6"/>
  <circle cx="627.1" cy="869.9" r="2.5" fill="#2eff00" opacity="0.6"/>
  <circle cx="611.0" cy="870.2" r="2.5" fill="#19ff00" opacity="0.6"/>
  <circle cx="594.9" cy="870.4" r="2.5" fill="#00ff06" opacity="0.6"/>
  <circle cx="578.8" cy="870.7" r="2.5" fill="#00ff4c" opacity="0.6"/>
  <circle cx="562.6" cy="871.0" r="2.5" fill="#00ff82" opacity="0.6"/>
  <circle cx="546.5" cy="871.3" r="2.5" fill="#00ffb3" opacity="0.6"/>
  <circle cx="530.4" cy="871.5" r="2.5" fill="#00ffe1" opacity="0.6"/>
  <circle cx="514.3" cy="871.8" r="2.5" fill="#00f9ff" opacity="0.6"/>
  <circle cx="498.2" cy="872.1" r="2.5" fill="#00e8ff" opacity="0.6"/>
  <circle cx="482.1" cy="872.4" r="2.5" fill="#00d6ff" opacity="0.6"/>
  <circle cx="466.0" cy="872.6" r="2.5" fill="#00c4ff" opacity="0.6"/>
  <circle cx="449.8" cy="872.9" r="2.5" fill="#00b1ff" opacity="0.6"/>
  <circle cx="433.7" cy="873.2" r="2.5" fill="#009eff" opacity="0.6"/>
  <circle cx="417.6" cy="873.5" r="2.5" fill="#008aff" opacity="0.6"/>
  <circle cx="401.5" cy="873.8" r="2.5" fill="#0076ff" opacity="0.6"/>
  <circle cx="385.4" cy="874.0" r="2.5" fill="#0060ff" opacity="0.6"/>
  <circle cx="369.3" cy="874.3" r="2.5" fill="#0049ff" opacity="0.6"/>
  <circle cx="353.2" cy="874.6" r="2.5" fill="#0031ff" opacity="0.6"/>
  <circle cx="337.0" cy="874.9" r="2.5" fill="#0014ff" opacity="0.6"/>
  <circle cx="320.9" cy="875.1" r="2.5" fill="#1100ff" opacity="0.6"/>
  <circle cx="304.8" cy="875.4" r="2.5" fill="#2900ff" opacity="0.6"/>
  <circle cx="288.7" cy="875.7" r="2.5" fill="#3f00ff" opacity="0.6"/>
  <circle cx="272.6" cy="876.0" r="2.5" fill="#5200ff" opacity="0.6"/>
  <circle cx="256.5" cy="876.2" r="2.5" fill="#6500ff" opacity="0.6"/>
  <circle cx="240.4" cy="876.5" r="2.5" fill="#7100f3" opacity="0.6"/>
  <circle cx="224.3" cy="876.8" r="2.5" fill="#7900e4" opacity="0.6"/>
  <circle cx="208.1" cy="877.1" r="2.5" fill="#7f00d4" opacity="0.6"/>
  <circle cx="192.0" cy="877.3" r="2.5" fill="#8200c4" opacity="0.6"/>
  <circle cx="175.9" cy="877.6" r="2.5" fill="#8200b4" opacity="0.6"/>
  <circle cx="159.8" cy="877.9" r="2.5" fill="#8000a3" opacity="0.6"/>
  <circle cx="143.7" cy="878.2" r="2.5" fill="#7b0092" opacity="0.6"/>
  <circle cx="127.6" cy="878.4" r="2.5" fill="#740080" opacity="0.6"/>
  <circle cx="111.5" cy="878.7" r="2.5" fill="#6a006e" opacity="0.6"/>
  <circle cx="95.3" cy="879.0" r="2.5" fill="#610061" opacity="0.6"/>
  <text x="102" y="866" font-family="'Courier New', monospace" font-size="6" fill="#55aaff" opacity="0.3">10^-34</text>
  <text x="1318" y="866" font-family="'Courier New', monospace" font-size="6" fill="#55aaff" opacity="0.3" text-anchor="end">10^26</text>
<text x="700" y="904" font-family="'Georgia', serif" font-size="12" fill="#cc9966" text-anchor="middle" opacity="0.6" font-style="italic">Invariants across ALL levels:</text>
<text x="700" y="922" font-family="'Courier New', monospace" font-size="10" fill="#aa8855" text-anchor="middle" opacity="0.45">ξ = 0.1582  ·  σ_conv = 1.086  ·  T_crossing = 207 GeV  ·  quark fraction = 100%</text>
<text x="700" y="940" font-family="'Courier New', monospace" font-size="9" fill="#886644" text-anchor="middle" opacity="0.35">Same physics at every level. Only mass changes. Conservation of rules.</text>
  <line x1="873" y1="85" x2="873" y2="145" stroke="#ffffff" stroke-width="0.5" opacity="0.15"/>
  <text x="873" y="69" font-family="'Courier New', monospace" font-size="7" fill="#fff500" text-anchor="middle" opacity="0.4">3 M☉</text>
  <text x="873" y="80" font-family="'Courier New', monospace" font-size="7" fill="#fff500" text-anchor="middle" opacity="0.4">stellar BH</text>
  <line x1="997" y1="85" x2="997" y2="145" stroke="#ffffff" stroke-width="0.5" opacity="0.15"/>
  <text x="997" y="69" font-family="'Courier New', monospace" font-size="7" fill="#ff8800" text-anchor="middle" opacity="0.4">Sgr A*</text>
  <text x="997" y="80" font-family="'Courier New', monospace" font-size="7" fill="#ff8800" text-anchor="middle" opacity="0.4">4×10⁶ M☉</text>
  <line x1="1061" y1="85" x2="1061" y2="145" stroke="#ffffff" stroke-width="0.5" opacity="0.15"/>
  <text x="1061" y="69" font-family="'Courier New', monospace" font-size="7" fill="#ff4500" text-anchor="middle" opacity="0.4">M87*</text>
  <text x="1061" y="80" font-family="'Courier New', monospace" font-size="7" fill="#ff4500" text-anchor="middle" opacity="0.4">6.5×10⁹ M☉</text>
  <line x1="1082" y1="85" x2="1082" y2="145" stroke="#ffffff" stroke-width="0.5" opacity="0.15"/>
  <text x="1082" y="69" font-family="'Courier New', monospace" font-size="7" fill="#ff2d00" text-anchor="middle" opacity="0.4">TON 618</text>
  <text x="1082" y="80" font-family="'Courier New', monospace" font-size="7" fill="#ff2d00" text-anchor="middle" opacity="0.4">6.6×10¹⁰ M☉</text>
</svg>